HIERARCHY
ROOT pelvis
{
  OFFSET 0 100 0
  CHANNELS 6 Xposition Yposition Zposition Zrotation Xrotation Yrotation
  JOINT pelvis_right_femur
  {
    OFFSET -10.78128 -3.44521 -0.5502486
    CHANNELS 3 Zrotation Xrotation Yrotation
    JOINT right_femur_tibia
    {
      OFFSET -0.8047443 -44.0398 -0.1307829
      CHANNELS 3 Zrotation Xrotation Yrotation
      JOINT right_tibia_foot
      {
        OFFSET 3.006224 -47.83518 -5
        CHANNELS 3 Zrotation Xrotation Yrotation
        End Site
        {
          OFFSET 0 -5 15
        }
      }
    }
  }
  JOINT pelvis_left_femur
  {
    OFFSET 10.78128 -3.44521 -0.5502486
    CHANNELS 3 Zrotation Xrotation Yrotation
    JOINT left_femur_tibia
    {
      OFFSET 0.8047443 -44.0398 -0.1307829
      CHANNELS 3 Zrotation Xrotation Yrotation
      JOINT left_tibia_foot
      {
        OFFSET -4.370144 -48.10324 -4.275266
        CHANNELS 3 Zrotation Xrotation Yrotation
        End Site
        {
          OFFSET 0 -5 15
        }
      }
    }
  }
  JOINT pelvis_spine1
  {
    OFFSET 0 6.468898 -3.129235
    CHANNELS 3 Zrotation Xrotation Yrotation
    JOINT spine1
    {
      OFFSET 0 23.15396 4.99043
      CHANNELS 3 Zrotation Xrotation Yrotation
      JOINT spine2
      {
        OFFSET 0 20.79997 -5.064912
        CHANNELS 3 Zrotation Xrotation Yrotation
        JOINT neck
        {
          OFFSET 0 14.38658 9.616178
          CHANNELS 3 Zrotation Xrotation Yrotation
          End Site
          {
            OFFSET 0 20 0
          }
        }
      }
      JOINT right_manubrium
      {
        OFFSET -5.722621 16.35077 3.967754
        CHANNELS 3 Zrotation Xrotation Yrotation
        JOINT right_clavicle
        {
          OFFSET -13.16364 1.694482 -4.693211
          CHANNELS 3 Zrotation Xrotation Yrotation
          JOINT right_humerus
          {
            OFFSET -28.5034 -0.3100689 -2.792744
            CHANNELS 3 Zrotation Xrotation Yrotation
            JOINT right_radius
            {
              OFFSET -25.15693 0.02248979 -1.271978
              CHANNELS 3 Zrotation Xrotation Yrotation
              End Site
              {
                OFFSET -15 0 0
              }
            }
          }
        }
      }
      JOINT left_manubrium
      {
        OFFSET 5.722621 16.35077 3.967754
        CHANNELS 3 Zrotation Xrotation Yrotation
        JOINT left_clavicle
        {
          OFFSET 13.16364 1.694482 -4.693211
          CHANNELS 3 Zrotation Xrotation Yrotation
          JOINT left_humerus
          {
            OFFSET 29.39168 -1.063119 -2.237045
            CHANNELS 3 Zrotation Xrotation Yrotation
            JOINT left_radius
            {
              OFFSET 24.59957 -0.9528479 0.9047498
              CHANNELS 3 Zrotation Xrotation Yrotation
              End Site
              {
                OFFSET 15 -0 -0
              }
            }
          }
        }
      }
    }
  }
}
MOTION
Frames: 11
Frame Time: 0.0416666666667
325.3108 101.8222 3065.97 -0.6170888 -4.520235 0.6978418 4.152997 18.46772 1.069118 -0 13.14504 -0 -5.708881 -15.94176 0.5420942 2.323059 -25.75834 -3.507316 -0 11.75266 -0 -2.860463 -5.51399 19.41446 1.37612 -2.615354 8.001291 -0.24121 14.96838 -5.266805 1.520195 17.54976 0.1043504 -2.664583 -19.33146 4.442896 -3.026244 -33.24927 12.13036 89.59656 19.9098 -6.453105 -0 0 30.97536 -21.24357 17.71661 19.57076 -1.31763 -18.13219 -6.982506 -92.02704 12.00223 42.10555 0 0 -17.75433 0.4703862 11.72407 15.75332
326.3535 101.0077 3072.687 -0.1573882 -4.608003 0.1698205 2.698034 20.39303 0.8815254 -0 17.2944 -0 -5.479097 -12.71327 0.9304621 0.3608851 -24.61397 -5.089158 -0 12.01387 -0 -3.021105 -6.129261 19.77304 1.376158 -2.615234 8.001213 -0.2412352 14.96851 -5.266906 1.520285 17.54999 0.1043854 -2.664505 -19.33147 4.442987 -3.026569 -33.24888 12.13036 89.59736 19.91002 -6.454016 -0 0 30.97432 -21.24323 17.7161 19.57004 -1.317614 -18.13248 -6.98264 -92.02657 12.00226 42.10472 0 0 -17.75497 0.4707487 11.72419 15.75285
327.4559 100.6969 3079.781 0.6198119 -4.930337 -0.1042183 1.075945 21.38543 0.98643 -0 23.18812 -0 -5.333738 -7.337702 1.085114 -1.838347 -22.80367 -6.726623 -0 14.24404 -0 -2.910343 -6.952371 20.04808 1.376222 -2.615027 8.001131 -0.2412418 14.96861 -5.267045 1.520384 17.55022 0.1043702 -2.664474 -19.33152 4.443081 -3.026982 -33.24852 12.13034 89.59826 19.91035 -6.455013 -0 0 30.97327 -21.24264 17.71548 19.56908 -1.3176 -18.13272 -6.982715 -92.02592 12.00221 42.1038 0 0 -17.75575 0.4713269 11.72437 15.75206
328.5819 100.9854 3087.054 1.439101 -5.403795 -0.01206082 -0.2676346 20.72331 1.3713 -0 30.85757 -0 -5.18874 -0.8218755 0.8784698 -3.730621 -20.19376 -8.017667 -0 16.95705 -0 -2.389814 -7.807174 20.14857 1.376309 -2.614747 8.001049 -0.2412296 14.96867 -5.267213 1.520485 17.55043 0.1043061 -2.664491 -19.33162 4.443173 -3.027461 -33.24822 12.13029 89.59921 19.91078 -6.456039 -0 0 30.97227 -21.24182 17.71477 19.56793 -1.31759 -18.13288 -6.982729 -92.02514 12.00209 42.10283 0 0 -17.7566 0.4720866 11.72459 15.75102
329.7016 101.8561 3094.234 2.010146 -5.949373 0.4751756 -0.95821 17.95338 1.825735 -0 39.54269 -0 -5.035198 5.336765 0.2754324 -4.99088 -16.68931 -8.790691 -0 18.95012 -0 -1.561371 -8.601842 20.0505 1.376414 -2.61441 8.000974 -0.2411993 14.9687 -5.267401 1.520583 17.55061 0.1041969 -2.664555 -19.33174 4.443259 -3.027979 -33.24798 12.13023 89.60016 19.91128 -6.457037 -0 0 30.97137 -21.24083 17.71402 19.56667 -1.317582 -18.13297 -6.982681 -92.02427 12.0019 42.10187 0 0 -17.75748 0.4729858 11.72485 15.74977
330.7929 103.1507 3101.057 2.164921 -6.507917 1.284708 -0.9073469 13.12453 2.120568 -0 47.60693 -0 -4.96626 9.74658 -0.6147538 -5.565896 -12.42833 -9.106438 -0 19.56621 -0 -0.6459521 -9.377306 19.789 1.376532 -2.614034 8.000908 -0.2411527 14.96868 -5.267599 1.520673 17.55075 0.1040484 -2.664661 -19.33189 4.443334 -3.028508 -33.24782 12.13015 89.60106 19.91183 -6.457955 -0 0 30.97062 -21.23972 17.71326 19.56535 -1.317578 -18.13298 -6.982573 -92.02335 12.00165 42.10097 0 0 -17.75835 0.4739763 11.72513 15.74838
331.8461 104.5854 3107.359 1.935687 -7.017864 2.26948 -0.3508049 6.774375 2.162505 -0 53.00754 -0 -5.061928 11.72312 -1.603296 -5.599746 -7.788579 -9.129386 -0 18.74179 -0 0.1654697 -10.27516 19.3742 1.376655 -2.613639 8.000855 -0.2410922 14.96862 -5.267797 1.520749 17.55085 0.1038686 -2.664804 -19.33206 4.443394 -3.02902 -33.24775 12.13006 89.60186 19.9124 -6.458742 -0 0 30.97006 -21.23855 17.71254 19.56404 -1.317578 -18.13291 -6.982411 -92.02244 12.00137 42.10019 0 0 -17.75916 0.4750043 11.72541 15.74693
332.8604 105.8257 3113.127 1.514589 -7.383436 3.26805 0.3366278 -0.2817139 1.950595 -0 54.14763 -0 -5.267345 11.47421 -2.534434 -5.323509 -3.202357 -9.000912 -0 16.87243 -0 0.7474867 -11.4683 18.74563 1.376776 -2.613246 8.000818 -0.2410209 14.96853 -5.267983 1.520808 17.55089 0.1036669 -2.664979 -19.33224 4.443435 -3.029484 -33.24778 12.12996 89.60251 19.91295 -6.459349 -0 0 30.96972 -21.23738 17.7119 19.56284 -1.317583 -18.13276 -6.982203 -92.02159 12.00106 42.09956 0 0 -17.75986 0.4760115 11.72568 15.7455
333.8353 106.5906 3118.491 1.125243 -7.477649 4.161798 0.8525841 -7.231871 1.474273 -0 50.58365 -0 -5.42451 9.800929 -3.315012 -4.97302 1.037936 -8.801523 -0 14.57735 -0 1.011198 -13.06679 17.83403 1.376889 -2.612879 8.000801 -0.2409426 14.9684 -5.268145 1.520845 17.55088 0.1034546 -2.665174 -19.33241 4.443454 -3.029873 -33.24791 12.12986 89.60296 19.91345 -6.459737 -0 0 30.96964 -21.23628 17.71138 19.5618 -1.317593 -18.13253 -6.981959 -92.02085 12.00074 42.09914 0 0 -17.76041 0.4769387 11.72592 15.74418
334.768 106.7313 3123.656 0.9074394 -7.190936 4.898063 1.061838 -13.47986 0.7174512 -0 43.14457 -0 -5.395993 7.631977 -3.885118 -4.731435 4.82551 -8.570301 -0 12.47956 -0 0.9126409 -15.02695 16.65495 1.376987 -2.612559 8.000804 -0.2408618 14.96824 -5.268275 1.520858 17.5508 0.1032435 -2.665381 -19.33258 4.44345 -3.030163 -33.24812 12.12977 89.6032 19.91389 -6.459878 -0 0 30.96983 -21.23531 17.71101 19.56098 -1.317608 -18.13224 -6.981693 -92.02026 12.00043 42.09894 0 0 -17.76077 0.4777299 11.72612 15.74304
335.6561 106.2509 3128.837 0.8821422 -6.490185 5.479413 0.9967787 -18.70647 -0.262433 -0 33.48563 -0 -5.132219 5.70481 -4.218724 -4.690496 8.16311 -8.322415 -0 11.08706 -0 0.4852828 -17.12482 15.32813 1.377063 -2.612303 8.000827 -0.2407832 14.96806 -5.268363 1.520845 17.55068 0.1030459 -2.665587 -19.33272 4.443423 -3.030336 -33.24842 12.12968 89.6032 19.91422 -6.459764 -0 0 30.97026 -21.23453 17.7108 19.56045 -1.317628 -18.13189 -6.981421 -92.01986 12.00014 42.09899 0 0 -17.76094 0.4783387 11.72625 15.74215
